<svg version="1.2" xmlns="http://www.w3.org/2000/svg" viewBox="0 0 1042 316" width="1042" height="316">
	<style>
		.s0 { fill: none } 
		.s1 { fill: #846542 } 
		.s2 { fill: #846542;stroke: #ffffff;stroke-width: .4 } 
	</style>
	<g id="background-logo">
		<path fill-rule="evenodd" class="s0" d="m-121-307h1280v1024h-1280z"/>
	</g>
	<g id="logo-logo">
		<g>
			<g>
				<path class="s1" d="m1040.82 247.07c-3.61-16.92-9.78-29.41-15.23-40.43-6.79-13.74-12.16-24.59-11.04-39.63 0.53-7.17 2.51-14.35 5.88-21.33 3.21-6.66 2.78-14.37-1.14-20.62-3.92-6.23-10.65-9.94-18.01-9.94h-35.06v-41.54c0-40.58-33.01-73.59-73.59-73.59-40.58 0-73.59 33.01-73.59 73.59v41.54h-35.06c-7.36 0-14.09 3.71-18.01 9.95-3.92 6.24-4.35 13.95-1.14 20.61 3.37 6.99 5.35 14.16 5.88 21.33 1.12 15.04-4.25 25.89-11.04 39.63-5.45 11.02-11.62 23.51-15.24 40.45-3.48 16.66 0.73 33.84 11.54 47.14 10.98 13.52 27.25 21.27 44.64 21.27h184.04c17.39 0 33.66-7.75 44.64-21.27 10.81-13.3 15.02-30.48 11.53-47.16zm-148.19-239.13c36.2 0 65.64 29.45 65.64 65.64v41.54h-40.22c-2.01 0-6.95 0-25.42 9.06-18.47-9.06-23.41-9.06-25.42-9.06h-33.6v7.95h33.6c3.02 0 8.91 2.14 16.49 5.65-6.01 3.16-13.07 7.04-21.41 11.83-14.3 8.22-27.8 16.5-35.3 21.17v-88.14c0-36.19 29.44-65.64 65.64-65.64zm130.49 281.28c-9.46 11.65-23.49 18.33-38.47 18.33h-184.04c-14.98 0-29.01-6.68-38.47-18.33-9.29-11.43-12.91-26.2-9.93-40.49 3.41-15.95 9.35-27.96 14.59-38.56 7.04-14.25 13.12-26.55 11.84-43.75-0.61-8.17-2.84-16.31-6.65-24.2-2.01-4.17-1.74-9.01 0.72-12.93 2.45-3.9 6.66-6.22 11.27-6.22h35.06v47.3l69.61 81.56v13.59c-5.42 3.55-7.82 13.79-7.82 17.49 0 6.51 5.29 11.8 11.8 11.8 6.51 0 11.8-5.29 11.8-11.8 0-3.7-2.4-13.94-7.82-17.49v-13.59l69.61-81.56v-40.68h-7.95v32.03c-7.5-4.67-21-12.95-35.3-21.17-8.34-4.79-15.4-8.67-21.41-11.83 7.58-3.51 13.47-5.65 16.49-5.65h83.23c4.61 0 8.82 2.32 11.27 6.22 2.46 3.92 2.73 8.76 0.72 12.93-3.81 7.89-6.04 16.03-6.65 24.2-1.28 17.2 4.8 29.5 11.84 43.75 5.24 10.6 11.18 22.61 14.58 38.55 2.99 14.3-0.62 29.07-9.92 40.5zm-154.51-124.29l24.02-29.97 24.02 29.97zm50.48 7.95l-26.45 66.79-26.46-66.79zm-60.67-7.95h-21.55c12.65-7.79 27.24-16.42 40.64-23.81zm-0.79 7.95l22.5 56.81-48.49-56.81zm70.01 0h25.99l-48.49 56.81zm-0.79-7.95l-19.09-23.81c13.4 7.39 27.99 16.02 40.63 23.81zm-30.36 118.08c0 2.12-1.73 3.85-3.85 3.85-2.12 0-3.85-1.73-3.85-3.85 0-3.04 2.22-8.94 3.85-10.53 1.63 1.59 3.85 7.49 3.85 10.53z"/>
			</g>
		</g>
	</g>
	<g id="text-logo">
		<g>
			<g id="text-logo-path-0">
				<path class="s1" d="m55.16 212.22h-40.35v-28.81h25.94c4.02 0 7.2-3.17 7.2-7.21 0-4.03-3.18-7.2-7.2-7.2h-25.94v-28.82h40.35c4.03 0 7.2-3.17 7.2-7.2 0-4.04-3.17-7.21-7.2-7.21h-46.11c-4.9 0-8.64 3.75-8.64 8.65v83.57c0 5.03 3.74 8.64 8.64 8.64h46.11c4.03 0 7.2-3.17 7.2-7.2 0-4.04-3.17-7.21-7.2-7.21zm91.33 10.8l27.95-89.33c0.16-0.56 0.31-1.44 0.31-2.15 0-4.04-3.19-7.21-7.2-7.21-3.19 0-6.07 2.31-6.92 5.03l-21.19 67.73-21.19-67.73c-0.85-2.72-3.75-5.03-6.9-5.03-4.05 0-7.2 3.17-7.2 7.21 0 0.71 0.13 1.59 0.27 2.15l27.97 89.33c0.86 2.75 3.75 5.05 6.9 5.05h0.15 0.15c3.15 0 6.04-2.3 6.9-5.05zm124.8-10.8h-40.35v-28.81h25.94c4.02 0 7.2-3.17 7.2-7.21 0-4.03-3.18-7.2-7.2-7.2h-25.94v-28.82h40.35c4.01 0 7.2-3.17 7.2-7.2 0-4.04-3.19-7.21-7.2-7.21h-46.11c-4.9 0-8.64 3.75-8.64 8.65v83.57c0 5.03 3.74 8.64 8.64 8.64h46.11c4.01 0 7.2-3.17 7.2-7.2 0-4.04-3.19-7.21-7.2-7.21zm99.42 0h-36.02v-80.68c0-4.04-3.19-7.21-7.21-7.21-4.03 0-7.2 3.17-7.2 7.21v86.45c0 5.03 3.73 8.64 8.64 8.64h41.79c4.01 0 7.2-3.17 7.2-7.2 0-4.04-3.19-7.21-7.2-7.21zm75.5 8.65v-39.9l27.22-45.69c0.58-1 1.02-2.44 1.02-3.74 0-4.04-3.19-7.21-7.2-7.21-2.6 0-4.92 1.31-6.21 3.46l-22.03 37.04-21.77-36.91c-1.29-2.15-3.61-3.59-6.19-3.59-4.03 0-7.2 3.17-7.2 7.21 0 1.3 0.42 2.59 1 3.59l26.95 45.68v40.06c0 4.03 3.15 7.2 7.21 7.2 4.03 0 7.2-3.17 7.2-7.2zm84.43-1.44v-58.5l33.86 61.96c1.15 2.17 3.61 3.74 6.34 3.74h0.15c4.03 0 7.2-3.17 7.2-7.2v-86.45c0-4.04-3.17-7.21-7.2-7.21-4.05 0-7.21 3.17-7.21 7.21v58.5l-33.87-61.96c-1.15-2.15-3.59-3.75-6.34-3.75h-0.13c-4.05 0-7.2 3.17-7.2 7.21v86.45c0 4.03 3.15 7.2 7.2 7.2 4.03 0 7.2-3.17 7.2-7.2zm144.09-7.21h-40.34v-28.81h25.93c4.04 0 7.21-3.17 7.21-7.21 0-4.03-3.17-7.2-7.21-7.2h-25.93v-28.82h40.34c4.04 0 7.21-3.17 7.21-7.2 0-4.04-3.17-7.21-7.21-7.21h-46.11c-4.91 0-8.64 3.75-8.64 8.65v83.57c0 5.03 3.73 8.64 8.64 8.64h46.11c4.04 0 7.21-3.17 7.21-7.2 0-4.04-3.17-7.21-7.21-7.21z"/>
			</g>
		</g>
	</g>
	<g id="tagline-4b6b1936-6546-45a9-bc21-2d210e32d98f-logo">
		<g>
			<g id="tagline-4b6b1936-6546-45a9-bc21-2d210e32d98f-logo-path-0">
				<path class="s2" d="m97.84 294.63v-11.98h10.61v11.98c0 1.29 1.01 2.31 2.3 2.31 1.29 0 2.31-1.02 2.31-2.31v-28.58c0-1.29-1.02-2.31-2.31-2.31-1.29 0-2.3 1.02-2.3 2.31v11.99h-10.61v-11.99c0-1.29-1.02-2.31-2.3-2.31-1.29 0-2.31 1.02-2.31 2.31v28.58c0 1.29 1.02 2.31 2.31 2.31 1.28 0 2.3-1.02 2.3-2.31zm42.32 0.7l1.81-5.77h9.95l1.81 5.77c0.27 0.88 1.19 1.61 2.21 1.61 1.28 0 2.3-1.02 2.3-2.31 0-0.23-0.04-0.49-0.09-0.69l-8.94-28.58c-0.29-0.89-1.21-1.62-2.23-1.62h-0.03-0.04c-1.02 0-1.94 0.73-2.23 1.62l-8.93 28.58c-0.06 0.2-0.1 0.46-0.1 0.69 0 1.29 1.02 2.31 2.3 2.31 1.02 0 1.95-0.73 2.21-1.61zm3.23-10.38l3.56-11.29 3.55 11.29zm42.05 9.22v-18.71l10.84 19.83c0.36 0.69 1.15 1.19 2.04 1.19h0.03c1.29 0 2.31-1.02 2.31-2.31v-27.66c0-1.29-1.02-2.31-2.31-2.31-1.28 0-2.3 1.02-2.3 2.31v18.71l-10.84-19.83c-0.36-0.69-1.15-1.19-2.03-1.19h-0.04c-1.29 0-2.31 1.02-2.31 2.31v27.66c0 1.29 1.02 2.31 2.31 2.31 1.29 0 2.3-1.02 2.3-2.31zm58.14-7.18v-13.83c0-5-3.96-8.96-8.94-8.96h-8.62c-1.58 0-2.77 1.19-2.77 2.77v26.74c0 1.62 1.19 2.77 2.77 2.77h8.03c5.3 0 9.53-4.25 9.53-9.49zm-4.61-13.83v13.83c0 2.67-2.21 4.88-4.92 4.88h-6.19v-23.06h6.78c2.41 0 4.33 1.94 4.33 4.35zm31.81 21.01v-16.73l7.76 17.66c0.37 0.82 1.19 1.38 2.12 1.38h0.03 0.06c0.92 0 1.75-0.56 2.12-1.38l7.74-17.66v16.73c0 1.29 1.02 2.31 2.3 2.31 1.31 0 2.31-1.02 2.31-2.31v-27.66c0-1.29-1-2.31-2.31-2.31h-0.04c-0.92 0-1.74 0.56-2.11 1.39l-10.07 22.92-10.04-22.92c-0.37-0.83-1.19-1.39-2.12-1.39h-0.05c-1.29 0-2.31 1.02-2.31 2.31v27.66c0 1.29 1.02 2.31 2.31 2.31 1.3 0 2.3-1.02 2.3-2.31zm51.57 1.16l1.78-5.77h9.97l1.79 5.77c0.29 0.88 1.21 1.61 2.21 1.61 1.31 0 2.3-1.02 2.3-2.31 0-0.23-0.03-0.49-0.07-0.69l-8.96-28.58c-0.26-0.89-1.19-1.62-2.2-1.62h-0.06-0.04c-1.02 0-1.94 0.73-2.21 1.62l-8.95 28.58c-0.04 0.2-0.1 0.46-0.1 0.69 0 1.29 1.02 2.31 2.31 2.31 1.02 0 1.94-0.73 2.23-1.61zm3.22-10.38l3.54-11.29 3.55 11.29zm57.77 2.04v-13.83c0-5-3.98-8.96-8.95-8.96h-8.63c-1.55 0-2.76 1.19-2.76 2.77v26.74c0 1.62 1.21 2.77 2.76 2.77h8.03c5.31 0 9.55-4.25 9.55-9.49zm-4.61-13.83v13.83c0 2.67-2.21 4.88-4.94 4.88h-6.18v-23.06h6.78c2.4 0 4.34 1.94 4.34 4.35zm44.72 18.71h-12.91v-9.22h8.3c1.29 0 2.31-1.02 2.31-2.31 0-1.29-1.02-2.3-2.31-2.3h-8.3v-9.23h12.91c1.29 0 2.31-1.01 2.31-2.3 0-1.29-1.02-2.31-2.31-2.31h-14.75c-1.58 0-2.77 1.19-2.77 2.77v26.74c0 1.62 1.19 2.77 2.77 2.77h14.75c1.29 0 2.31-1.02 2.31-2.31 0-1.28-1.02-2.3-2.31-2.3zm57.18 1.84c0 1.62 1.19 2.77 2.76 2.77h8.02c5.3 0 9.54-4.25 9.54-9.49 0-3.19-1.48-5.96-3.86-7.71 1.52-1.61 2.44-3.74 2.44-6.12 0-5-3.97-8.96-8.95-8.96h-7.19c-1.57 0-2.76 1.19-2.76 2.77zm4.61-1.84v-9.82h5.34c0.29 0 0.52 0 0.83-0.06v0.06c2.72 0 4.93 2.21 4.93 4.94 0 2.67-2.21 4.88-4.93 4.88zm0-14.43v-8.63h5.34c2.4 0 4.34 1.94 4.34 4.34 0 2.35-1.94 4.29-4.34 4.29zm42.82 17.88l1.81-5.76h9.95l1.8 5.76c0.27 0.89 1.19 1.62 2.21 1.62 1.29 0 2.31-1.02 2.31-2.31 0-0.23-0.04-0.5-0.1-0.69l-8.93-28.59c-0.29-0.88-1.21-1.61-2.21-1.61h-0.06-0.04c-1.02 0-1.94 0.73-2.21 1.61l-8.95 28.59c-0.04 0.19-0.1 0.46-0.1 0.69 0 1.29 1.02 2.31 2.31 2.31 1.02 0 1.94-0.73 2.21-1.62zm3.23-10.37l3.55-11.3 3.56 11.3zm46.39 0.04h4.94v2.46c0 2.67-2.23 4.88-4.94 4.88h-1.25c-2.9 0-4.94-2.04-4.94-4.94v-14.1c0-2.9 2.04-4.94 4.94-4.94h1.25c2.71 0 4.94 2.21 4.94 4.88 0 1.31 1 2.31 2.3 2.31 1.29 0 2.31-1 2.31-2.31 0-5.24-4.25-9.49-9.55-9.49h-1.25c-5.49 0-9.55 4.05-9.55 9.55v14.1c0 5.49 4.06 9.55 9.55 9.55h1.25c5.3 0 9.55-4.25 9.55-9.49v-4.31c0-1.55-1.21-2.76-2.77-2.76h-6.78c-1.29 0-2.3 1.02-2.3 2.3 0 1.31 1.01 2.31 2.3 2.31z"/>
			</g>
		</g>
	</g>
</svg>