<svg version="1.2" xmlns="http://www.w3.org/2000/svg" viewBox="0 0 299 316" width="299" height="316">
	<style>
		.s0 { fill: none } 
		.s1 { fill: #846542 } 
	</style>
	<g id="background-logo">
		<path fill-rule="evenodd" class="s0" d="m-864-307h1280v1024h-1280z"/>
	</g>
	<g id="logo-logo">
		<g>
			<g>
				<path class="s1" d="m297.82 247.07c-3.61-16.92-9.78-29.41-15.23-40.43-6.79-13.74-12.16-24.59-11.04-39.63 0.53-7.17 2.51-14.35 5.88-21.33 3.21-6.66 2.78-14.37-1.14-20.62-3.92-6.23-10.65-9.94-18.01-9.94h-35.06v-41.54c0-40.58-33.01-73.59-73.59-73.59-40.58 0-73.59 33.01-73.59 73.59v41.54h-35.06c-7.36 0-14.09 3.71-18.01 9.95-3.92 6.24-4.35 13.95-1.14 20.61 3.37 6.99 5.35 14.16 5.88 21.33 1.12 15.04-4.25 25.89-11.04 39.63-5.45 11.02-11.62 23.51-15.24 40.45-3.48 16.66 0.73 33.84 11.54 47.14 10.98 13.52 27.25 21.27 44.64 21.27h184.04c17.39 0 33.66-7.75 44.64-21.27 10.81-13.3 15.02-30.48 11.53-47.16zm-148.19-239.13c36.2 0 65.64 29.45 65.64 65.64v41.54h-40.22c-2.01 0-6.95 0-25.42 9.06-18.47-9.06-23.41-9.06-25.42-9.06h-33.6v7.95h33.6c3.02 0 8.91 2.14 16.49 5.65-6.01 3.16-13.07 7.04-21.41 11.83-14.3 8.22-27.8 16.5-35.3 21.17v-88.14c0-36.19 29.44-65.64 65.64-65.64zm130.49 281.28c-9.46 11.65-23.49 18.33-38.47 18.33h-184.04c-14.98 0-29.01-6.68-38.47-18.33-9.29-11.43-12.91-26.2-9.93-40.49 3.41-15.95 9.35-27.96 14.59-38.56 7.04-14.25 13.12-26.55 11.84-43.75-0.61-8.17-2.84-16.31-6.65-24.2-2.01-4.17-1.74-9.01 0.72-12.93 2.45-3.9 6.66-6.22 11.27-6.22h35.06v47.3l69.61 81.56v13.59c-5.42 3.55-7.82 13.79-7.82 17.49 0 6.51 5.29 11.8 11.8 11.8 6.51 0 11.8-5.29 11.8-11.8 0-3.7-2.4-13.94-7.82-17.49v-13.59l69.61-81.56v-40.68h-7.95v32.03c-7.5-4.67-21-12.95-35.3-21.17-8.34-4.79-15.4-8.67-21.41-11.83 7.58-3.51 13.47-5.65 16.49-5.65h83.23c4.61 0 8.82 2.32 11.27 6.22 2.46 3.92 2.73 8.76 0.72 12.93-3.81 7.89-6.04 16.03-6.65 24.2-1.28 17.2 4.8 29.5 11.84 43.75 5.24 10.6 11.18 22.61 14.58 38.55 2.99 14.3-0.62 29.07-9.92 40.5zm-154.51-124.29l24.02-29.97 24.02 29.97zm50.48 7.95l-26.45 66.79-26.46-66.79zm-60.67-7.95h-21.55c12.65-7.79 27.24-16.42 40.64-23.81zm-0.79 7.95l22.5 56.81-48.49-56.81zm70.01 0h25.99l-48.49 56.81zm-0.79-7.95l-19.09-23.81c13.4 7.39 27.99 16.02 40.63 23.81zm-30.36 118.08c0 2.12-1.73 3.85-3.85 3.85-2.12 0-3.85-1.73-3.85-3.85 0-3.04 2.22-8.94 3.85-10.53 1.63 1.59 3.85 7.49 3.85 10.53z"/>
			</g>
		</g>
	</g>
	<g id="tagline-4b6b1936-6546-45a9-bc21-2d210e32d98f-logo">
	</g>
</svg>